<?xml version="1.0" encoding="UTF-8"?><svg xmlns="http://www.w3.org/2000/svg" xmlns:xlink="http://www.w3.org/1999/xlink" fill-opacity="1" color-rendering="auto" color-interpolation="auto" text-rendering="auto" stroke="black" stroke-linecap="square" width="1592" stroke-miterlimit="10" shape-rendering="auto" stroke-opacity="1" fill="black" stroke-dasharray="none" font-weight="normal" stroke-width="1" height="1390" font-family="'Dialog'" font-style="normal" stroke-linejoin="miter" font-size="12px" stroke-dashoffset="0" image-rendering="auto">
  <!--Generated by ySVG 2.5-->
  <defs id="genericDefs"/>
  <g>
    <defs id="defs1">
      <clipPath clipPathUnits="userSpaceOnUse" id="clipPath1">
        <path d="M0 0 L1592 0 L1592 1390 L0 1390 L0 0 Z"/>
      </clipPath>
      <clipPath clipPathUnits="userSpaceOnUse" id="clipPath2">
        <path d="M29 -15 L1621 -15 L1621 1375 L29 1375 L29 -15 Z"/>
      </clipPath>
    </defs>
    <g fill="white" text-rendering="geometricPrecision" shape-rendering="geometricPrecision" transform="translate(-29,15)" stroke="white">
      <rect x="29" width="1592" height="1390" y="-15" clip-path="url(#clipPath2)" stroke="none"/>
    </g>
    <g fill="rgb(186,213,223)" text-rendering="geometricPrecision" shape-rendering="geometricPrecision" transform="matrix(1,0,0,1,-29,15)" stroke="rgb(186,213,223)">
      <rect x="725" y="0" clip-path="url(#clipPath2)" width="200" rx="4" ry="4" height="80" stroke="none"/>
    </g>
    <g stroke-linecap="butt" transform="matrix(1,0,0,1,-29,15)" fill="rgb(48,48,48)" text-rendering="geometricPrecision" shape-rendering="geometricPrecision" stroke="rgb(48,48,48)" stroke-width="3" stroke-miterlimit="1.45">
      <rect x="725" y="0" clip-path="url(#clipPath2)" fill="none" width="200" rx="4" ry="4" height="80"/>
      <text x="799.611" font-size="26px" y="48.71" clip-path="url(#clipPath2)" font-family="'Brandon Grotesque Medium'" stroke="none" stroke-width="1" xml:space="preserve">Code</text>
    </g>
    <g fill="rgb(95,157,182)" text-rendering="geometricPrecision" shape-rendering="geometricPrecision" transform="matrix(1,0,0,1,-29,15)" stroke="rgb(95,157,182)">
      <rect x="725" y="160" clip-path="url(#clipPath2)" width="200" rx="4" ry="4" height="80" stroke="none"/>
    </g>
    <g stroke-linecap="butt" transform="matrix(1,0,0,1,-29,15)" fill="rgb(48,48,48)" text-rendering="geometricPrecision" shape-rendering="geometricPrecision" stroke="rgb(48,48,48)" stroke-width="3" stroke-miterlimit="1.45">
      <rect x="725" y="160" clip-path="url(#clipPath2)" fill="none" width="200" rx="4" ry="4" height="80"/>
      <text x="780.319" font-size="26px" y="208.71" clip-path="url(#clipPath2)" font-family="'Brandon Grotesque Medium'" stroke="none" stroke-width="1" xml:space="preserve">Frontend</text>
    </g>
    <g fill="rgb(95,157,182)" text-rendering="geometricPrecision" shape-rendering="geometricPrecision" transform="matrix(1,0,0,1,-29,15)" stroke="rgb(95,157,182)">
      <rect x="725" y="320" clip-path="url(#clipPath2)" width="200" rx="4" ry="4" height="80" stroke="none"/>
    </g>
    <g stroke-linecap="butt" transform="matrix(1,0,0,1,-29,15)" fill="rgb(48,48,48)" text-rendering="geometricPrecision" shape-rendering="geometricPrecision" stroke="rgb(48,48,48)" stroke-width="3" stroke-miterlimit="1.45">
      <rect x="725" y="320" clip-path="url(#clipPath2)" fill="none" width="200" rx="4" ry="4" height="80"/>
      <text x="775.574" font-size="26px" y="368.71" clip-path="url(#clipPath2)" font-family="'Brandon Grotesque Medium'" stroke="none" stroke-width="1" xml:space="preserve">Consumer</text>
    </g>
    <g fill="rgb(255,209,102)" text-rendering="geometricPrecision" shape-rendering="geometricPrecision" transform="matrix(1,0,0,1,-29,15)" stroke="rgb(255,209,102)">
      <rect x="725" y="480" clip-path="url(#clipPath2)" width="200" rx="4" ry="4" height="80" stroke="none"/>
    </g>
    <g stroke-linecap="butt" transform="matrix(1,0,0,1,-29,15)" fill="rgb(48,48,48)" text-rendering="geometricPrecision" shape-rendering="geometricPrecision" stroke="rgb(48,48,48)" stroke-width="3" stroke-miterlimit="1.45">
      <rect x="725" y="480" clip-path="url(#clipPath2)" fill="none" width="200" rx="4" ry="4" height="80"/>
      <text x="792.825" font-size="26px" y="528.71" clip-path="url(#clipPath2)" font-family="'Brandon Grotesque Medium'" stroke="none" stroke-width="1" xml:space="preserve">Visitor</text>
    </g>
    <g fill="rgb(2,125,99)" text-rendering="geometricPrecision" shape-rendering="geometricPrecision" transform="matrix(1,0,0,1,-29,15)" stroke="rgb(2,125,99)">
      <rect x="725" y="800" clip-path="url(#clipPath2)" width="200" rx="4" ry="4" height="80" stroke="none"/>
    </g>
    <g stroke-linecap="butt" transform="matrix(1,0,0,1,-29,15)" fill="rgb(48,48,48)" text-rendering="geometricPrecision" shape-rendering="geometricPrecision" stroke="rgb(48,48,48)" stroke-width="3" stroke-miterlimit="1.45">
      <rect x="725" y="800" clip-path="url(#clipPath2)" fill="none" width="200" rx="4" ry="4" height="80"/>
      <text x="785.805" font-size="26px" y="848.71" clip-path="url(#clipPath2)" font-family="'Brandon Grotesque Medium'" stroke="none" stroke-width="1" xml:space="preserve">Builders</text>
    </g>
    <g fill="rgb(50,129,161)" text-rendering="geometricPrecision" shape-rendering="geometricPrecision" transform="matrix(1,0,0,1,-29,15)" stroke="rgb(50,129,161)">
      <rect x="725" y="960" clip-path="url(#clipPath2)" width="200" rx="4" ry="4" height="80" stroke="none"/>
    </g>
    <g stroke-linecap="butt" font-size="26px" transform="matrix(1,0,0,1,-29,15)" fill="rgb(48,48,48)" text-rendering="geometricPrecision" font-family="'Brandon Grotesque Medium'" shape-rendering="geometricPrecision" stroke="rgb(48,48,48)" stroke-miterlimit="1.45">
      <text x="785.337" xml:space="preserve" y="1008.71" clip-path="url(#clipPath2)" stroke="none">IRProxy</text>
      <rect x="725" y="960" clip-path="url(#clipPath2)" fill="none" width="200" rx="4" ry="4" height="80" stroke-width="3"/>
    </g>
    <g fill="rgb(2,125,99)" text-rendering="geometricPrecision" shape-rendering="geometricPrecision" transform="matrix(1,0,0,1,-29,15)" stroke="rgb(2,125,99)">
      <rect x="725" y="1120" clip-path="url(#clipPath2)" width="200" rx="4" ry="4" height="80" stroke="none"/>
    </g>
    <g stroke-linecap="butt" transform="matrix(1,0,0,1,-29,15)" fill="rgb(48,48,48)" text-rendering="geometricPrecision" shape-rendering="geometricPrecision" stroke="rgb(48,48,48)" stroke-width="3" stroke-miterlimit="1.45">
      <rect x="725" y="1120" clip-path="url(#clipPath2)" fill="none" width="200" rx="4" ry="4" height="80"/>
      <text x="785.805" font-size="26px" y="1168.71" clip-path="url(#clipPath2)" font-family="'Brandon Grotesque Medium'" stroke="none" stroke-width="1" xml:space="preserve">Builders</text>
    </g>
    <g fill="rgb(5,93,129)" text-rendering="geometricPrecision" shape-rendering="geometricPrecision" transform="matrix(1,0,0,1,-29,15)" stroke="rgb(5,93,129)">
      <rect x="725" y="1280" clip-path="url(#clipPath2)" width="200" rx="4" ry="4" height="80" stroke="none"/>
    </g>
    <g stroke-linecap="butt" transform="matrix(1,0,0,1,-29,15)" fill="rgb(48,48,48)" text-rendering="geometricPrecision" shape-rendering="geometricPrecision" stroke="rgb(48,48,48)" stroke-width="3" stroke-miterlimit="1.45">
      <rect x="725" y="1280" clip-path="url(#clipPath2)" fill="none" width="200" rx="4" ry="4" height="80"/>
      <text x="813.17" font-size="26px" y="1328.71" clip-path="url(#clipPath2)" font-family="'Brandon Grotesque Medium'" stroke="none" stroke-width="1" xml:space="preserve">IR</text>
    </g>
    <g fill="rgb(255,209,102)" text-rendering="geometricPrecision" shape-rendering="geometricPrecision" transform="matrix(1,0,0,1,-29,15)" stroke="rgb(255,209,102)">
      <rect x="525" y="640" clip-path="url(#clipPath2)" width="200" rx="4" ry="4" height="80" stroke="none"/>
    </g>
    <g stroke-linecap="butt" transform="matrix(1,0,0,1,-29,15)" fill="rgb(48,48,48)" text-rendering="geometricPrecision" shape-rendering="geometricPrecision" stroke="rgb(48,48,48)" stroke-width="3" stroke-miterlimit="1.45">
      <rect x="525" y="640" clip-path="url(#clipPath2)" fill="none" width="200" rx="4" ry="4" height="80"/>
      <text x="545.752" font-size="26px" y="688.71" clip-path="url(#clipPath2)" font-family="'Brandon Grotesque Medium'" stroke="none" stroke-width="1" xml:space="preserve">VisitNamespace</text>
    </g>
    <g fill="rgb(255,209,102)" text-rendering="geometricPrecision" shape-rendering="geometricPrecision" transform="matrix(1,0,0,1,-29,15)" stroke="rgb(255,209,102)">
      <rect x="925" y="640" clip-path="url(#clipPath2)" width="200" rx="4" ry="4" height="80" stroke="none"/>
    </g>
    <g stroke-linecap="butt" transform="matrix(1,0,0,1,-29,15)" fill="rgb(48,48,48)" text-rendering="geometricPrecision" shape-rendering="geometricPrecision" stroke="rgb(48,48,48)" stroke-width="3" stroke-miterlimit="1.45">
      <rect x="925" y="640" clip-path="url(#clipPath2)" fill="none" width="200" rx="4" ry="4" height="80"/>
      <text x="959.246" font-size="26px" y="688.71" clip-path="url(#clipPath2)" font-family="'Brandon Grotesque Medium'" stroke="none" stroke-width="1" xml:space="preserve">VisitFunction</text>
    </g>
    <g fill="rgb(255,209,102)" text-rendering="geometricPrecision" shape-rendering="geometricPrecision" transform="matrix(1,0,0,1,-29,15)" stroke="rgb(255,209,102)">
      <rect x="1325" y="640" clip-path="url(#clipPath2)" width="200" rx="4" ry="4" height="80" stroke="none"/>
    </g>
    <g stroke-linecap="butt" transform="matrix(1,0,0,1,-29,15)" fill="rgb(48,48,48)" text-rendering="geometricPrecision" shape-rendering="geometricPrecision" stroke="rgb(48,48,48)" stroke-width="3" stroke-miterlimit="1.45">
      <rect x="1325" y="640" clip-path="url(#clipPath2)" fill="none" width="200" rx="4" ry="4" height="80"/>
      <text x="1378.694" font-size="26px" y="688.71" clip-path="url(#clipPath2)" font-family="'Brandon Grotesque Medium'" stroke="none" stroke-width="1" xml:space="preserve">VisitField</text>
    </g>
    <g fill="rgb(255,209,102)" text-rendering="geometricPrecision" shape-rendering="geometricPrecision" transform="matrix(1,0,0,1,-29,15)" stroke="rgb(255,209,102)">
      <rect x="125" y="640" clip-path="url(#clipPath2)" width="200" rx="4" ry="4" height="80" stroke="none"/>
    </g>
    <g stroke-linecap="butt" transform="matrix(1,0,0,1,-29,15)" fill="rgb(48,48,48)" text-rendering="geometricPrecision" shape-rendering="geometricPrecision" stroke="rgb(48,48,48)" stroke-width="3" stroke-miterlimit="1.45">
      <rect x="125" y="640" clip-path="url(#clipPath2)" fill="none" width="200" rx="4" ry="4" height="80"/>
      <text x="145.0499" font-size="26px" y="688.71" clip-path="url(#clipPath2)" font-family="'Brandon Grotesque Medium'" stroke="none" stroke-width="1" xml:space="preserve">VisitCXXRecord</text>
      <rect x="44.2088" y="600" clip-path="url(#clipPath2)" fill="none" width="1561.5825" stroke-dasharray="18,6" rx="4" ry="4" height="320"/>
      <text x="1148.9902" font-size="48px" y="893.7599" clip-path="url(#clipPath2)" font-family="'Brandon Grotesque Medium'" stroke="none" stroke-width="1" xml:space="preserve">ParserVisitor constructor</text>
      <rect x="44.2088" y="1080" clip-path="url(#clipPath2)" fill="none" width="1561.5825" stroke-dasharray="18,6" rx="4" ry="4" height="161.3775"/>
      <text x="1170.5903" font-size="48px" y="1215.1375" clip-path="url(#clipPath2)" font-family="'Brandon Grotesque Medium'" stroke="none" stroke-width="1" xml:space="preserve">ParserVisitor destructor</text>
      <path fill="none" d="M825 80 L825 146.2109" clip-path="url(#clipPath2)"/>
      <path d="M825 159.9609 L832.5 144.9609 L817.5 144.9609 Z" clip-path="url(#clipPath2)" stroke="none"/>
      <path fill="none" d="M825 240 L825 306.2109" clip-path="url(#clipPath2)"/>
      <path d="M825 319.9609 L832.5 304.9609 L817.5 304.9609 Z" clip-path="url(#clipPath2)" stroke="none"/>
      <path fill="none" d="M825 400 L825 466.2109" clip-path="url(#clipPath2)"/>
      <path d="M825 479.9609 L832.5 464.9609 L817.5 464.9609 Z" clip-path="url(#clipPath2)" stroke="none"/>
      <path fill="none" d="M825 880 L825 946.2109" clip-path="url(#clipPath2)"/>
      <path d="M825 959.9609 L832.5 944.9609 L817.5 944.9609 Z" clip-path="url(#clipPath2)" stroke="none"/>
      <path fill="none" d="M825 1040 L825 1106.2109" clip-path="url(#clipPath2)"/>
      <path d="M825 1119.9609 L832.5 1104.9609 L817.5 1104.9609 Z" clip-path="url(#clipPath2)" stroke="none"/>
      <path fill="none" d="M825 1200 L825 1266.2109" clip-path="url(#clipPath2)"/>
      <path d="M825 1279.9609 L832.5 1264.9609 L817.5 1264.9609 Z" clip-path="url(#clipPath2)" stroke="none"/>
      <path fill="none" d="M800 560 L800 583 L799.375 587.375 L797.5 590.5 L794.375 592.375 L790 593 L635 593 L630.625 593.625 L627.5 595.5 L625.625 598.625 L625 603 L625 626.2041" clip-path="url(#clipPath2)"/>
      <path d="M625 639.9541 L632.5 624.9541 L617.5 624.9541 Z" clip-path="url(#clipPath2)" stroke="none"/>
      <path fill="none" d="M625 720 L625 728 L625.625 731.5 L627.5 734 L630.625 735.5 L635 736 L790 736 L794.375 736.625 L797.5 738.5 L799.375 741.625 L800 746 L800 786.2188" clip-path="url(#clipPath2)"/>
      <path d="M800 799.9688 L807.5 784.9688 L792.5 784.9688 Z" clip-path="url(#clipPath2)" stroke="none"/>
      <path fill="none" d="M850 560 L850 583 L850.625 587.375 L852.5 590.5 L855.625 592.375 L860 593 L1015 593 L1019.375 593.625 L1022.5 595.5 L1024.375 598.625 L1025 603 L1025 626.2041" clip-path="url(#clipPath2)"/>
      <path d="M1025 639.9541 L1032.5 624.9541 L1017.5 624.9541 Z" clip-path="url(#clipPath2)" stroke="none"/>
      <path fill="none" d="M1025 720 L1025 728 L1024.375 731.5 L1022.5 734 L1019.375 735.5 L1015 736 L860 736 L855.625 736.625 L852.5 738.5 L850.625 741.625 L850 746 L850 786.2188" clip-path="url(#clipPath2)"/>
      <path d="M850 799.9688 L857.5 784.9688 L842.5 784.9688 Z" clip-path="url(#clipPath2)" stroke="none"/>
      <path fill="none" d="M900 560 L900 568 L900.625 571.5 L902.5 574 L905.625 575.5 L910 576 L1415 576 L1419.375 576.625 L1422.5 578.5 L1424.375 581.625 L1425 586 L1425 626.2188" clip-path="url(#clipPath2)"/>
      <path d="M1425 639.9688 L1432.5 624.9688 L1417.5 624.9688 Z" clip-path="url(#clipPath2)" stroke="none"/>
      <path fill="none" d="M1425 720 L1425 743 L1424.375 747.375 L1422.5 750.5 L1419.375 752.375 L1415 753 L910 753 L905.625 753.625 L902.5 755.5 L900.625 758.625 L900 763 L900 786.2041" clip-path="url(#clipPath2)"/>
      <path d="M900 799.9541 L907.5 784.9541 L892.5 784.9541 Z" clip-path="url(#clipPath2)" stroke="none"/>
      <path fill="none" d="M750 560 L750 568 L749.375 571.5 L747.5 574 L744.375 575.5 L740 576 L235 576 L230.625 576.625 L227.5 578.5 L225.625 581.625 L225 586 L225 626.2188" clip-path="url(#clipPath2)"/>
      <path d="M225 639.9688 L232.5 624.9688 L217.5 624.9688 Z" clip-path="url(#clipPath2)" stroke="none"/>
      <path fill="none" d="M225 720 L225 743 L225.625 747.375 L227.5 750.5 L230.625 752.375 L235 753 L740 753 L744.375 753.625 L747.5 755.5 L749.375 758.625 L750 763 L750 786.2041" clip-path="url(#clipPath2)"/>
      <path d="M750 799.9541 L757.5 784.9541 L742.5 784.9541 Z" clip-path="url(#clipPath2)" stroke="none"/>
    </g>
  </g>
</svg>
